<svg width="21" height="22" viewBox="0 0 21 22" fill="none" xmlns="http://www.w3.org/2000/svg">
<path fill-rule="evenodd" clip-rule="evenodd" d="M12.728 0.631846C14.0495 -0.340831 15.8982 -0.206075 16.8157 1.14446C17.7333 2.49511 17.2324 4.35327 15.9104 5.31691L15.9103 5.31697C15.7503 5.43357 15.5826 5.53835 15.4085 5.63054C15.3275 5.6734 15.2379 5.69571 15.147 5.69563L10.7427 5.69165C10.5538 5.69148 10.377 5.59487 10.2699 5.43326C10.1628 5.27164 10.1391 5.06569 10.2065 4.88242C10.8162 3.22401 11.4421 1.5784 12.728 0.631846ZM15.8769 1.83215C15.4003 1.13072 14.3077 0.931437 13.3925 1.6051C12.5961 2.1913 12.0998 3.17432 11.5842 4.49941L15.0034 4.5025C15.0881 4.45265 15.1705 4.39858 15.2503 4.34045C16.165 3.67365 16.3533 2.53344 15.8769 1.83215ZM1 10.3881C1 10.0587 1.2572 9.7916 1.57448 9.7916H19.4255C19.7428 9.7916 20 10.0587 20 10.3881V19.8128C20 20.3929 19.7781 20.9492 19.383 21.3594C18.988 21.7696 18.4522 22 17.8936 22H3.10643C2.54777 22 2.01199 21.7696 1.61696 21.3594C1.22193 20.9492 1 20.3929 1 19.8128V10.3881ZM2.14896 10.9846V19.8128C2.14896 20.0765 2.24984 20.3294 2.4294 20.5158C2.60896 20.7023 2.85249 20.807 3.10643 20.807H17.8936C18.1475 20.807 18.391 20.7023 18.5706 20.5158C18.7502 20.3294 18.851 20.0765 18.851 19.8128V10.9846H2.14896Z" fill="#239FB7"/>
<path fill-rule="evenodd" clip-rule="evenodd" d="M8 10.5863C8 10.2625 8.22843 10 8.5102 10H12.4898C12.7716 10 13 10.2625 13 10.5863V21.4137C13 21.7375 12.7716 22 12.4898 22H8.5102C8.22843 22 8 21.7375 8 21.4137V10.5863ZM9.02041 11.1726V20.8274H11.9796V11.1726H9.02041Z" fill="#239FB7"/>
<path fill-rule="evenodd" clip-rule="evenodd" d="M7.83147 1.69148C6.928 0.981299 5.85612 1.19045 5.38377 1.9314C4.91398 2.66834 5.09989 3.86886 6.00065 4.57247L6.00529 4.57613C6.08071 4.63631 6.15888 4.69205 6.23948 4.74311L9.60739 4.73986C9.09924 3.34236 8.61672 2.30873 7.83147 1.69148ZM4.46247 1.20431C5.36815 -0.21636 7.18034 -0.359094 8.48322 0.665044C9.75218 1.66252 10.3607 3.39879 10.9624 5.14214C11.0291 5.33526 11.0061 5.55252 10.9008 5.72308C10.7956 5.89363 10.6217 5.99563 10.4357 5.99581L6.09832 6C6.00943 6.00009 5.92178 5.97683 5.8425 5.93211C5.67074 5.83524 5.50586 5.72396 5.3493 5.59922C4.05297 4.58474 3.55479 2.62813 4.46247 1.20431Z" fill="#239FB7"/>
<path fill-rule="evenodd" clip-rule="evenodd" d="M1.75 6.10429C1.42783 6.10429 1.16667 6.3515 1.16667 6.65644V9.34356C1.16667 9.6485 1.42783 9.89571 1.75 9.89571H19.25C19.5722 9.89571 19.8333 9.6485 19.8333 9.34356V6.65644C19.8333 6.3515 19.5722 6.10429 19.25 6.10429H1.75ZM0 6.65644C0 5.74161 0.783502 5 1.75 5H19.25C20.2165 5 21 5.74161 21 6.65644V9.34356C21 10.2584 20.2165 11 19.25 11H1.75C0.783502 11 0 10.2584 0 9.34356V6.65644Z" fill="#239FB7"/>
<path fill-rule="evenodd" clip-rule="evenodd" d="M7 5.55215C7 5.2472 7.27932 5 7.62389 5H13.3761C13.7207 5 14 5.2472 14 5.55215V10.4479C14 10.7528 13.7207 11 13.3761 11H7.62389C7.27932 11 7 10.7528 7 10.4479V5.55215ZM8.24777 6.10429V9.89571H12.7522V6.10429H8.24777Z" fill="#239FB7"/>
</svg>
