<svg width="63" height="59" viewBox="0 0 63 59" fill="none" xmlns="http://www.w3.org/2000/svg">
<path d="M55.5906 40.4018C55.5041 40.7967 55.4131 41.1858 55.3165 41.5755C49.197 46.8201 42.3122 50.5642 34.9485 52.652C34.0976 52.8968 33.2422 53.1147 32.3822 53.3057C25.9392 54.7637 19.2425 54.9199 12.5133 53.7692C12.159 53.7083 11.8053 53.6442 11.4523 53.577C11.1991 53.5289 10.9432 53.4795 10.6894 53.4206C10.546 53.3301 10.4051 53.2408 10.2643 53.1516C10.2574 53.1446 10.2473 53.1395 10.2403 53.1324C10.1835 53.0964 10.1266 53.0605 10.0717 53.029C9.8298 52.8744 9.58844 52.7165 9.34668 52.5619L9.37517 52.7308L9.44799 53.1541L9.44553 53.1528C9.41659 53.0117 9.38834 52.8675 9.36256 52.7244C9.35104 52.6729 9.33772 52.617 9.32947 52.5636C9.31974 52.5166 9.31081 52.4664 9.30109 52.4193C8.08743 46.3526 6.94493 40.1219 7.56606 34.2198C8.21778 28.0417 11.2978 22.2424 16.0368 21.4548C16.658 21.354 17.2945 21.3446 17.9349 21.4268C18.2023 21.461 18.469 21.5124 18.7368 21.5714C20.3757 21.9286 21.9669 22.8422 23.347 24.2182C24.727 25.5943 25.8461 27.3831 26.5891 29.4008C27.332 31.4184 27.6721 33.5922 27.5744 35.6985C27.4766 37.8048 26.9446 39.7677 26.0329 41.3853C30.4852 38.6717 31.3784 31.0506 31.4635 24.3455C31.5466 17.6359 31.522 10.1131 35.1415 5.89435C37.1544 3.54072 39.9586 2.87479 42.8196 3.48766C42.9052 3.50664 42.9934 3.52696 43.081 3.55041C46.4689 4.36989 49.6557 6.8037 52.0045 10.3655C56.2996 17.0625 57.3114 26.1303 56.5678 34.1295C56.3679 36.2699 56.0413 38.3667 55.5906 40.4018Z" fill="#239FB7"/>
<path d="M46.4021 23.8793C46.5637 22.1462 46.4667 20.3601 46.1141 18.5774C45.9177 17.6353 45.6363 16.7005 45.2737 15.7853C45.1081 15.358 44.9225 14.9325 44.7224 14.5147C44.2134 13.9357 43.6942 13.368 43.1648 12.8116C43.4772 13.3159 43.7648 13.8327 44.0264 14.3599C44.1737 14.6459 44.3095 14.9344 44.4384 15.2247C45.8806 18.4775 46.1316 21.8913 45.663 25.1149C45.1588 28.567 44.0313 31.8719 42.588 34.9056C41.1128 38.0188 39.2326 40.8784 36.9896 43.4202C36.9393 43.478 36.9163 43.5568 36.9254 43.64C36.9344 43.7232 36.9748 43.8045 37.0381 43.867C37.0897 43.9249 37.1589 43.9634 37.2309 43.9743C37.2668 43.9775 37.3015 43.9722 37.3325 43.9589C37.3635 43.9455 37.3898 43.9245 37.4094 43.8974C37.6861 43.5837 37.9607 43.2692 38.2263 42.9454C40.4448 40.2599 42.2777 37.2533 43.6826 33.9946C45.0423 30.8525 46.1047 27.4455 46.4021 23.8793Z" fill="white"/>
<path d="M18.4549 33.8554C18.1683 33.1109 17.7647 32.3974 17.2569 31.7373C16.9844 31.3905 16.6785 31.064 16.3432 30.7621C16.1882 30.6205 16.0254 30.4836 15.8581 30.3528C15.5312 30.2187 15.2024 30.0914 14.8718 29.9708C15.1027 30.1142 15.326 30.2678 15.5408 30.431C15.6595 30.5184 15.7741 30.6092 15.8861 30.7021C17.1407 31.7438 17.939 33.0943 18.4031 34.5132C18.8992 36.0332 19.1093 37.6197 19.1346 39.1591C19.163 40.7377 18.9735 42.2947 18.5703 43.7951C18.5614 43.829 18.568 43.866 18.5886 43.8984C18.6093 43.9307 18.6424 43.9559 18.6812 43.9686C18.7141 43.9819 18.7504 43.9836 18.7822 43.9734C18.7976 43.9674 18.8108 43.9582 18.8208 43.9464C18.8308 43.9346 18.8373 43.9206 18.8398 43.9055C18.8895 43.7203 18.9382 43.5353 18.9813 43.3483C19.3452 41.7939 19.4854 40.1862 19.3985 38.5622C19.3168 36.9953 19.0591 35.3801 18.4549 33.8554Z" fill="white"/>
</svg>
