<svg width="20" height="18" viewBox="0 0 20 18" fill="none" xmlns="http://www.w3.org/2000/svg">
<path fill-rule="evenodd" clip-rule="evenodd" d="M14.6387 11.2197C15.4983 10.0718 16 8.68875 16 7.2C16 3.22337 12.4188 0 8 0C3.58186 0 0 3.22367 0 7.2C0 11.1769 3.58152 14.4 8 14.4C10.4026 14.4 12.5573 13.4474 14.0236 11.9389L18.8298 16.2645C19.0375 16.4514 19.0375 16.7533 18.8298 16.9403C18.7287 17.0313 18.5947 17.0803 18.4554 17.0803C18.3151 17.0803 18.1811 17.0313 18.0799 16.9403L14.3329 13.568C14.1377 13.3922 13.8211 13.3922 13.6258 13.568C13.4305 13.7437 13.4305 14.0286 13.6258 14.2044L17.3728 17.5767C17.6633 17.8382 18.0525 17.9803 18.4554 17.9803C18.8575 17.9803 19.2465 17.838 19.5369 17.5767C20.1352 17.0382 20.1352 16.1665 19.5369 15.6281L14.6387 11.2197ZM13.9162 10.5695C14.6026 9.59509 15 8.43942 15 7.2C15 3.72041 11.8665 0.9 8 0.9C4.13414 0.9 1 3.72073 1 7.2C1 10.6799 4.13379 13.5 8 13.5C10.1265 13.5 12.031 12.6473 13.3147 11.3009L12.1938 10.2921C11.9985 10.1163 11.9985 9.83142 12.1938 9.65568C12.3891 9.47995 12.7057 9.47995 12.9009 9.65568L13.9162 10.5695ZM10.7123 10.9812C9.9111 11.448 8.97673 11.7001 8 11.7001C5.23878 11.7001 3 9.68544 3 7.2001C3 6.95157 2.77614 6.7501 2.5 6.7501C2.22386 6.7501 2 6.95157 2 7.2001C2 10.1825 4.68653 12.6001 8 12.6001C9.17097 12.6001 10.2938 12.2971 11.2557 11.7368C11.4875 11.6017 11.5538 11.3231 11.4037 11.1145C11.2537 10.9058 10.9441 10.8462 10.7123 10.9812Z" fill="#C9D1D1"/>
</svg>
