<svg width="1000" height="806" viewBox="0 0 1000 806" fill="none" xmlns="http://www.w3.org/2000/svg">
<path d="M843.352 463.228C843.168 464.556 843.278 465.909 843.674 467.19C844.07 468.471 844.742 469.65 845.643 470.644C846.544 471.637 847.651 472.421 848.888 472.94C850.124 473.459 851.459 473.701 852.799 473.648L861.587 492.679L874.455 490.16L861.667 463.459C861.429 461.213 860.376 459.133 858.707 457.613C857.038 456.092 854.87 455.237 852.612 455.208C850.354 455.18 848.165 455.98 846.458 457.458C844.751 458.936 843.646 460.989 843.352 463.228V463.228Z" fill="#FFB6B6"/>
<path d="M932.374 535.247L896.519 517.511L871.218 474.571L853.533 483.126L876.484 532.731L934.462 566.201L932.374 535.247Z" fill="#305A84"/>
<path d="M843.272 789.039L832.028 788.252L828.947 755.459L845.542 756.621L843.272 789.039Z" fill="#FFB6B6"/>
<path d="M850.973 797.141L815.716 805.96L815.605 805.514C814.695 801.874 815.267 798.022 817.197 794.805C819.127 791.588 822.255 789.269 825.895 788.358L825.896 788.358L847.429 782.972L850.973 797.141Z" fill="#444444"/>
<path d="M963.935 768.419L956.071 776.493L929.049 757.661L940.656 745.744L963.935 768.419Z" fill="#FFB6B6"/>
<path d="M973.767 773.983L948.41 800.017L948.08 799.697C945.393 797.079 943.855 793.501 943.806 789.75C943.756 785.999 945.199 782.381 947.816 779.694L947.817 779.693L963.305 763.792L973.767 773.983Z" fill="#444444"/>
<path d="M865.363 595.687H857.567C837.301 617.832 829.999 643 818.499 672C818.499 672 813.843 687.82 814.999 698C817.498 720 822.998 767.5 822.998 767.5L849.998 764.5C849.998 764.5 840.999 711.02 840.999 698C840.999 683.364 860.998 659 860.998 659C860.998 659 856.131 716.255 860.998 722.5C864.4 726.865 934.857 767.869 934.857 767.869L950.22 745.174L887.759 711.02L898.396 656.944C898.396 656.944 919.797 639.097 907.335 611.197L865.363 595.687Z" fill="#305A84"/>
<path d="M967.961 524.917L935.567 510.729L899.912 526.528C899.912 526.528 889.815 532.272 896.251 546.981L857.566 595.687C857.566 595.687 857.638 595.707 906.255 611.197L950.119 572.569C956.779 566.703 961.891 559.287 965.003 550.976C968.115 542.664 969.131 533.714 967.961 524.917V524.917Z" fill="#305A84"/>
<path d="M962.524 510.31C974.994 510.31 985.104 500.2 985.104 487.73C985.104 475.259 974.994 465.149 962.524 465.149C950.053 465.149 939.943 475.259 939.943 487.73C939.943 500.2 950.053 510.31 962.524 510.31Z" fill="#FFB6B6"/>
<path d="M991.767 457.765C986.585 453.549 978.548 452.628 973.198 456.629C963.867 451.732 951.258 454.286 944.569 462.429C942.162 465.359 940.457 469.323 941.648 472.923C942.839 476.523 947.974 478.64 950.652 475.954L950.604 477.06C953.015 479.475 954.687 482.528 955.423 485.86C956.159 489.193 955.928 492.666 954.758 495.872C953.587 499.077 951.526 501.882 948.816 503.956C946.107 506.031 942.861 507.288 939.461 507.581C946.86 510.571 954.26 513.56 961.659 516.549C964.773 517.807 967.985 519.084 971.343 519.067C974.701 519.05 978.28 517.419 979.583 514.324C980.519 517.195 981.456 520.067 982.393 522.939C987.908 514.164 992.445 504.811 995.921 495.048C998.162 488.754 999.973 482.173 999.731 475.497C999.489 468.821 996.95 461.981 991.767 457.765Z" fill="#444444"/>
<path opacity="0.5" d="M980.508 37.1273L963.571 47.8261L973.849 29.1925C970.934 26.8802 967.329 25.6016 963.603 25.559H963.338C962.162 25.5733 960.988 25.485 959.829 25.295L954.074 28.9286L956.538 24.472C952.483 23.0669 948.971 20.4335 946.495 16.941L936.186 23.354L942.674 11.5994C936.67 4.40993 928.56 0 919.656 0C908.973 0 899.382 6.3354 893.3 16.1956C891.48 19.1408 888.91 21.5541 885.85 23.1904C882.791 24.8268 879.351 25.6279 875.88 25.5124H875.365C863.575 25.5124 854 38.8199 854 55.264C854 71.7081 863.575 85 875.365 85C877.959 84.9922 880.511 84.3581 882.804 83.1522C886.819 81.2049 891.212 80.1518 895.678 80.066C900.143 79.9801 904.573 80.8637 908.661 82.6553C912.123 84.1859 915.868 84.9768 919.656 84.9768C923.443 84.9768 927.189 84.1859 930.65 82.6553C934.707 80.9018 939.095 80.0385 943.516 80.1243C947.937 80.21 952.288 81.2427 956.273 83.1522C958.548 84.3258 961.071 84.9433 963.634 84.9534C975.439 84.9534 984.999 71.646 984.999 55.2174C985.041 48.9088 983.497 42.6901 980.508 37.1273Z" fill="white"/>
<path opacity="0.6" d="M8.42255 150.146L40.7551 170.646L21.1305 134.958C26.6923 130.519 33.5767 128.063 40.6926 127.979H41.2134C43.4599 128.012 45.7048 127.845 47.9216 127.479L58.838 134.542L54.1298 126C61.8984 123.285 68.6078 118.18 73.296 111.417L92.9205 123.917L80.5666 101.208C92.0455 87.4375 107.503 79 124.503 79C144.898 79 163.065 91.125 174.793 110.021C178.267 115.691 183.183 120.338 189.038 123.49C194.894 126.641 201.48 128.183 208.126 127.958H209.23C231.75 127.958 250 153.479 250 184.979C250 216.479 231.75 242 209.23 242C204.275 241.987 199.398 240.764 195.022 238.437C187.36 234.713 178.98 232.698 170.462 232.532C161.943 232.367 153.491 234.055 145.69 237.479C139.096 240.442 131.952 241.982 124.722 242C117.493 242.018 110.342 240.513 103.733 237.583C95.9891 234.222 87.613 232.566 79.1729 232.728C70.7329 232.89 62.4264 234.865 54.8173 238.521C50.4832 240.789 45.6675 241.982 40.7759 242C18.2556 242 0.00605774 216.458 0.00605774 184.979C-0.15097 172.846 2.74315 160.868 8.42255 150.146Z" fill="white"/>
<path d="M351.51 399.462L295.8 396.307L291.754 467.742L235.144 464.536L239.19 393.101L66.6669 383.329L68.9571 342.894L235.435 149.048L297.885 152.585L140.902 337.954L243.787 343.782L247.375 280.433L302.187 283.537L298.599 346.886L354.31 350.041L351.51 399.462ZM502.98 484.213C477.821 482.788 455.713 475.226 436.657 461.526C417.618 447.527 403.095 428.075 393.087 403.169C383.097 377.964 379.051 348.588 380.951 315.042C382.851 281.496 390.179 252.914 402.935 229.298C415.708 205.382 432.335 187.694 452.815 176.233C473.313 164.474 496.142 159.306 521.302 160.731C546.461 162.156 568.561 169.868 587.599 183.867C606.955 197.584 621.628 217.045 631.618 242.25C641.626 267.156 645.68 296.382 643.78 329.928C641.88 363.474 634.544 392.205 621.771 416.121C609.015 439.738 592.238 457.417 571.441 469.16C550.96 480.62 528.14 485.638 502.98 484.213ZM505.856 433.444C528.32 434.717 546.517 426.432 560.448 408.592C574.679 390.768 582.838 363.435 584.924 326.594C587.011 289.753 581.991 261.675 569.864 242.358C558.036 223.058 540.89 212.772 518.426 211.5C496.262 210.245 478.064 218.529 463.833 236.353C449.902 254.193 441.893 281.534 439.807 318.375C437.72 355.216 442.591 383.287 454.418 402.586C466.545 421.903 483.691 432.189 505.856 433.444ZM958.74 433.854L903.03 430.699L898.984 502.134L842.374 498.928L846.42 427.493L673.897 417.721L676.187 377.286L842.665 183.44L905.115 186.977L748.131 372.346L851.017 378.174L854.604 314.825L909.417 317.93L905.829 381.278L961.539 384.433L958.74 433.854Z" fill="white"/>
<path d="M506.689 425.42C506.861 426.641 506.757 427.884 506.386 429.062C506.015 430.24 505.385 431.324 504.541 432.237C503.696 433.15 502.658 433.871 501.498 434.348C500.339 434.825 499.087 435.047 497.831 434.999L489.591 452.492L477.527 450.176L489.516 425.632C489.739 423.568 490.727 421.656 492.291 420.259C493.856 418.861 495.89 418.074 498.006 418.048C500.123 418.022 502.176 418.758 503.776 420.117C505.376 421.475 506.413 423.362 506.689 425.42V425.42Z" fill="#FFB6B6"/>
<path d="M423.225 491.62L456.842 475.318L480.563 435.847L497.145 443.71L475.626 489.308L421.266 520.073L423.225 491.62Z" fill="#BDF1FB"/>
<path d="M499.117 724.957L509.685 724.956L514.713 695.085L499.115 695.085L499.117 724.957Z" fill="#FFB6B6"/>
<path d="M495 730.67L527.155 741.945L527.295 741.546C528.436 738.292 528.212 734.708 526.671 731.584C525.131 728.46 522.401 726.051 519.082 724.887L519.081 724.887L499.442 718.001L495 730.67Z" fill="#444444"/>
<path d="M393.631 705.955L401.005 713.376L426.34 696.066L415.457 685.112L393.631 705.955Z" fill="#FFB6B6"/>
<path d="M384.413 711.069L408.188 735L408.497 734.705C411.017 732.299 412.458 729.01 412.505 725.562C412.551 722.114 411.199 718.789 408.745 716.318L408.744 716.318L394.223 701.701L384.413 711.069Z" fill="#444444"/>
<path d="M486.052 547.178H493.361C512.362 567.534 526.866 591.521 535.962 617.633L544.693 642.697L513.574 706.577L494.156 706.916L516.35 639.097L493.99 610.026L492.863 668.465L420.894 705.449L406.49 684.588L465.053 653.193L455.08 603.485C455.08 603.485 435.014 587.081 446.699 561.434L486.052 547.178Z" fill="#BDF1FB"/>
<path d="M389.859 482.125L420.231 469.083L453.66 483.606C453.66 483.606 463.127 488.886 457.093 502.407L493.363 547.178C493.363 547.178 493.296 547.196 447.713 561.434L406.587 525.927C400.342 520.536 395.549 513.718 392.631 506.079C389.714 498.439 388.761 490.212 389.859 482.125V482.125Z" fill="#BDF1FB"/>
<path d="M394.954 468.698C383.261 468.698 373.783 459.406 373.783 447.942C373.783 436.479 383.261 427.186 394.954 427.186C406.646 427.186 416.125 436.479 416.125 447.942C416.125 459.406 406.646 468.698 394.954 468.698Z" fill="#FFB6B6"/>
<path d="M365.487 420.398C370.346 416.523 377.882 415.677 382.898 419.354C391.646 414.853 403.469 417.201 409.74 424.686C411.997 427.379 413.596 431.023 412.479 434.332C411.362 437.641 406.547 439.587 404.037 437.118L404.082 438.135C401.821 440.355 400.253 443.161 399.563 446.224C398.873 449.287 399.09 452.48 400.187 455.426C401.284 458.373 403.217 460.951 405.758 462.858C408.084 465.035 406.967 463.546 408.084 465.78C414.787 475.461 406.501 495.056 399.563 497.803C386.487 508.974 402.499 510.091 390.584 517.166C376.806 524.614 379.785 522.752 376.062 528.337C370.103 521.262 372.71 510.091 372.149 507.857C370.848 499.665 364.852 463.644 361.592 454.67C359.492 448.884 357.794 442.834 358.021 436.698C358.248 430.561 360.628 424.274 365.487 420.398Z" fill="#444444"/>
<path d="M854.412 457.978C854.386 459.319 854.654 460.649 855.198 461.875C855.742 463.101 856.548 464.192 857.559 465.073C858.57 465.954 859.762 466.602 861.051 466.972C862.34 467.342 863.695 467.425 865.019 467.215L875.984 485.081L888.466 481.065L872.627 456.053C872.127 453.852 870.836 451.91 869 450.596C867.164 449.282 864.91 448.688 862.664 448.925C860.419 449.162 858.339 450.215 856.818 451.883C855.297 453.552 854.441 455.72 854.412 457.978L854.412 457.978Z" fill="#FFB6B6"/>
<path d="M951.284 519.028L913.592 505.633L883.418 465.965L866.861 476.54L895.486 523.103L956.998 549.522L951.284 519.028Z" fill="#305A84"/>
</svg>
