<svg width="24" height="20" viewBox="0 0 24 20" fill="none" xmlns="http://www.w3.org/2000/svg">
<path d="M0.362361 9.3031C2.81763 7.94228 5.55839 6.80653 8.11922 5.66498C12.5248 3.7952 16.948 1.95782 21.4157 0.247248C22.285 -0.0442175 23.8469 -0.329255 24 0.966929C23.9162 2.80166 23.5712 4.62565 23.3345 6.44964C22.7339 10.4608 22.0398 14.4582 21.3629 18.4561C21.1296 19.7877 19.4717 20.4771 18.4108 19.6249C15.8614 17.8922 13.2923 16.1763 10.7754 14.4034C9.95097 13.5604 10.7155 12.3499 11.4518 11.748C13.5516 9.6658 15.7785 7.89676 17.7686 5.70698C18.3054 4.40261 16.7193 5.5019 16.1961 5.83871C13.3215 7.83195 10.5172 9.94687 7.48641 11.6987C5.93829 12.5561 4.13393 11.8233 2.58651 11.3448C1.19905 10.7669 -0.833952 10.1844 0.362361 9.3031Z" fill="white"/>
</svg>
