<svg width="116" height="116" viewBox="0 0 116 116" fill="none" xmlns="http://www.w3.org/2000/svg">
<path fill-rule="evenodd" clip-rule="evenodd" d="M115.61 51.2793C118.004 71.8988 109.248 91.8928 93.0056 104.205C91.7295 105.173 89.9106 104.923 88.9428 103.648C87.9751 102.372 88.225 100.554 89.501 99.5866C104.125 88.501 112.004 70.5089 109.849 51.9476C109.239 46.6983 107.87 41.722 105.863 37.1157L64.2816 78.6775C62.585 80.3734 60.3019 81.263 57.9952 81.2364C55.6234 81.263 53.3403 80.3734 51.6436 78.6775L30.04 57.0839C28.9076 55.952 28.9076 54.1168 30.04 52.9849C31.1725 51.853 33.0085 51.853 34.141 52.9849L55.7446 74.5785C56.3141 75.1478 57.088 75.4493 57.9952 75.4398C58.8373 75.4493 59.6112 75.1478 60.1807 74.5785L103.101 31.6777C92.9659 14.3303 73.2199 3.68252 51.9768 6.15179C23.3415 9.47967 2.82906 35.3779 6.15335 64.0029C8.87851 87.4317 26.9468 105.951 49.9699 109.544C50.5184 109.638 51.4972 109.784 52.7392 109.931C53.7214 110.047 54.7075 110.143 55.6725 110.21C57.2701 110.322 58.4744 111.707 58.3623 113.304C58.2502 114.901 56.8643 116.105 55.2667 115.993C54.2039 115.918 53.127 115.814 52.0576 115.688C50.7056 115.528 49.6292 115.367 49.0314 115.264C23.4937 111.28 3.42057 90.7051 0.392465 64.6719C-3.30113 32.8668 19.4902 4.09125 51.3069 0.393644C74.3737 -2.28761 95.852 8.95056 107.328 27.4532L111.003 23.7799C112.135 22.648 113.971 22.648 115.104 23.7799C116.236 24.9118 116.236 26.747 115.104 27.879L110.237 32.7437C112.983 38.4261 114.841 44.6571 115.61 51.2793Z" fill="#1AB87B"/>
</svg>
