<svg width="261" height="386" viewBox="0 0 261 386" fill="none" xmlns="http://www.w3.org/2000/svg">
<path d="M7.53703 39.8479C5.0621 40.4651 2.62459 41.1096 0.184063 41.7899C-31.7837 81.338 -54.1489 125.441 -65.9811 172.265C-67.3707 177.676 -68.5896 183.111 -69.638 188.569C-77.6645 229.471 -77.4345 271.737 -68.9553 313.971C-68.507 316.194 -68.0388 318.413 -67.5508 320.627C-67.2014 322.216 -66.8434 323.821 -66.4259 325.411C-65.8291 326.299 -65.2405 327.172 -64.6523 328.043C-64.6069 328.085 -64.5725 328.148 -64.5267 328.191C-64.2896 328.543 -64.0526 328.895 -63.8442 329.236C-62.8247 330.734 -61.7852 332.227 -60.766 333.724L-61.837 333.575L-64.5199 333.192L-64.5114 333.208C-63.6161 333.365 -62.701 333.517 -61.7943 333.653C-61.4673 333.717 -61.1121 333.79 -60.7742 333.833C-60.4755 333.886 -60.1573 333.933 -59.8586 333.986C-21.3744 340.539 18.1308 346.615 55.2442 341.626C94.092 336.394 130.111 315.915 134.218 285.883C134.741 281.946 134.685 277.93 134.05 273.906C133.786 272.225 133.413 270.553 132.992 268.874C130.442 258.602 124.391 248.732 115.462 240.277C106.532 231.823 95.047 225.089 82.1863 220.77C69.3255 216.45 55.5535 214.699 42.2863 215.698C29.0191 216.697 16.7354 220.409 6.69817 226.452C23.0053 197.878 70.9113 190.861 113.186 189.108C155.49 187.366 202.942 186.156 228.894 162.562C243.373 149.439 247.064 131.631 242.68 113.698C242.544 113.161 242.4 112.608 242.236 112.06C236.453 90.8406 220.524 71.1829 197.633 57.0149C154.614 31.14 97.2382 26.4046 46.9205 32.5462C33.4568 34.1951 20.2913 36.636 7.53703 39.8479Z" fill="#239FB7"/>
<path d="M127.217 100.389C139.006 100.595 150.959 102.583 162.697 106.289C168.894 108.315 174.977 110.908 180.869 114.033C183.621 115.467 186.347 117.034 189.011 118.694C192.529 122.554 195.963 126.474 199.314 130.453C196.152 127.974 192.887 125.651 189.533 123.496C187.718 122.29 185.877 121.16 184.018 120.076C163.196 107.936 140.399 103.695 118.346 104.441C94.7272 105.257 71.6338 110.379 50.1303 117.83C28.0678 125.436 7.41072 135.958 -11.3789 149.16C-11.8057 149.455 -12.3528 149.552 -12.9063 149.429C-13.4598 149.306 -13.9771 148.973 -14.3505 148.5C-14.7017 148.109 -14.9093 147.615 -14.9289 147.121C-14.9237 146.878 -14.8621 146.648 -14.749 146.449C-14.636 146.25 -14.4746 146.089 -14.2779 145.978C-11.959 144.349 -9.63667 142.735 -7.2581 141.188C12.48 128.258 34.0924 118.165 57.0815 111.14C79.2522 104.334 102.985 99.7266 127.217 100.389Z" fill="white"/>
<path d="M40.8163 264.764C47.0008 264.872 53.2713 265.915 59.4293 267.859C62.68 268.922 65.8713 270.282 68.9618 271.922C70.4058 272.674 71.836 273.496 73.2332 274.367C75.0789 276.392 76.8805 278.448 78.6381 280.536C76.9795 279.235 75.2667 278.016 73.5073 276.886C72.5548 276.253 71.5891 275.661 70.6142 275.092C59.6908 268.723 47.7316 266.498 36.1623 266.89C23.7721 267.318 11.6573 270.005 0.376596 273.913C-11.1974 277.903 -22.0341 283.423 -31.8911 290.349C-32.115 290.504 -32.402 290.555 -32.6924 290.49C-32.9828 290.426 -33.2541 290.251 -33.45 290.003C-33.6343 289.798 -33.7432 289.539 -33.7534 289.28C-33.7507 289.152 -33.7184 289.031 -33.6591 288.927C-33.5998 288.823 -33.5151 288.738 -33.412 288.68C-32.1954 287.825 -30.9772 286.979 -29.7294 286.167C-19.3747 279.384 -8.0369 274.089 4.02315 270.404C15.6539 266.833 28.104 264.416 40.8163 264.764Z" fill="white"/>
</svg>
