<svg width="183" height="157" viewBox="0 0 183 157" fill="none" xmlns="http://www.w3.org/2000/svg">
<path d="M155.597 84.7373L135.839 104.22L91.1876 148.241L90.2839 149.131L85.2495 154.094L74.6947 143.675L73.7654 142.76L54.468 123.716H54.4639L48.2805 117.61L44.6272 114.002L33.7472 103.266L32.2776 101.815L14.9356 84.6993C11.4903 81.2583 8.57015 77.3298 6.26884 73.04C6.05767 72.656 5.85907 72.2678 5.6648 71.8795C1.55222 63.6873 -0.207412 54.5166 0.581252 45.3856C1.36992 36.2546 4.67602 27.5207 10.1325 20.1535C15.589 12.7863 22.9823 7.07415 31.4916 3.65126C40.0009 0.228373 49.2933 -0.771309 58.3368 0.763193H58.3412C58.5016 0.788512 58.6579 0.813823 58.8184 0.847581C60.515 1.1467 62.1942 1.5369 63.8487 2.01648C68.178 3.26685 72.3159 5.10257 76.1476 7.47268C76.5489 7.72165 76.9459 7.97483 77.3387 8.23224C80.1473 10.0865 82.7609 12.2199 85.1395 14.5999L85.2874 14.4522L85.4353 14.5999C86.8762 13.1607 88.4038 11.8106 90.0094 10.5574C90.3598 10.2831 90.7147 10.013 91.0694 9.75137C96.5012 5.74992 102.693 2.8979 109.266 1.36984C115.839 -0.15822 122.655 -0.330183 129.297 0.864464C130.995 1.16346 132.676 1.55508 134.331 2.03757C134.885 2.19373 135.434 2.36252 135.979 2.54395C136.418 2.68742 136.857 2.83511 137.292 2.99546C140.914 4.28906 144.371 6.00277 147.593 8.10143C148.299 8.56137 148.994 9.04243 149.68 9.5446C155.484 13.7597 160.304 19.1816 163.809 25.4368C167.313 31.692 169.42 38.6319 169.982 45.7785C170.544 52.9252 169.55 60.1087 167.066 66.8343C164.583 73.5599 160.67 79.6678 155.597 84.7373Z" fill="#239FB7"/>
<path d="M168.302 15.4144C162.158 9.25818 154.509 4.81404 146.115 2.52286C145.558 2.36673 145.005 2.22747 144.443 2.09666C142.028 1.52014 139.573 1.12659 137.098 0.919341C136.667 0.877143 136.237 0.847604 135.802 0.826505C133.631 0.689359 131.454 0.697816 129.285 0.851823C117.402 1.64621 106.193 6.6515 97.6755 14.9671L97.5233 14.8151L97.3713 14.9671C91.8061 9.54154 85.0533 5.48477 77.6474 3.11785C77.2291 2.98282 76.8068 2.852 76.3844 2.72963C70.6808 1.07679 64.7303 0.441142 58.8059 0.851823C58.6413 0.860263 58.4765 0.87292 58.3161 0.8898C47.4531 1.72194 37.1601 6.07852 29.0046 13.296C28.2358 13.9712 27.4797 14.6801 26.7449 15.4144C19.8407 22.3251 15.1001 31.0951 13.102 40.6532C11.1039 50.2113 11.9348 60.1439 15.4933 69.2379C15.6411 69.6346 15.8016 70.0271 15.9705 70.4195C18.484 76.4076 22.144 81.8475 26.7449 86.4336L43.183 102.646L44.4754 103.925L80.0462 139.004L80.9626 139.911L90.3052 149.127L97.5232 156.246L168.302 86.4294C177.714 77.0051 183 64.2353 183 50.9219C183 37.6084 177.714 24.8387 168.302 15.4144ZM167.411 85.5306L97.5232 154.465L91.2091 148.237L82.0652 139.219L81.1487 138.316L46.2705 103.912L44.9991 102.659L27.6402 85.5348C23.184 81.0942 19.6326 75.8319 17.1827 70.0397C17.0138 69.6473 16.8532 69.2548 16.7055 68.8624C13.2139 59.9894 12.3886 50.2915 14.3308 40.9569C16.2731 31.6223 20.8984 23.0565 27.6402 16.309C28.4259 15.5241 29.2298 14.773 30.0518 14.0556H30.0561C37.9022 7.19559 47.7436 3.03063 58.1344 2.17262C59.5155 2.05447 60.898 1.99539 62.2819 1.99539C62.8013 1.99539 63.3167 2.00382 63.8362 2.0207C68.0806 2.15127 72.2901 2.83214 76.359 4.04622C76.7773 4.16859 77.1953 4.2994 77.6092 4.43865C82.0109 5.87205 86.1829 7.93135 89.997 10.5531C92.4799 12.2542 94.8001 14.181 96.9279 16.309L97.3756 16.7563L97.5233 16.6086L97.6711 16.7563L98.1189 16.309C102.851 11.5761 108.506 7.86547 114.733 5.40754C120.961 2.94961 127.627 1.79681 134.319 2.0207C134.855 2.03758 135.392 2.0629 135.928 2.10088C136.359 2.1262 136.79 2.15574 137.217 2.19794C139.939 2.44188 142.636 2.91477 145.279 3.61158C145.845 3.75505 146.407 3.91118 146.964 4.08419C155.068 6.53254 162.398 11.0377 168.239 17.1602C174.08 23.2827 178.233 30.8133 180.292 39.0175C182.352 47.2216 182.248 55.8191 179.99 63.9711C177.732 72.123 173.398 79.5511 167.411 85.5306Z" fill="#3F3D56"/>
</svg>
