<svg width="116" height="116" viewBox="0 0 116 116" fill="none" xmlns="http://www.w3.org/2000/svg">
<path fill-rule="evenodd" clip-rule="evenodd" d="M116 58.3029C116 79.1796 104.99 98.1413 87.4292 108.552C86.0497 109.37 84.2717 108.909 83.4581 107.522C82.6444 106.135 83.1032 104.348 84.4828 103.53C100.292 94.1573 110.2 77.0948 110.2 58.3029C110.2 29.3214 86.831 5.83029 58 5.83029C29.169 5.83029 5.8 29.3214 5.8 58.3029C5.8 82.0339 21.602 102.624 44.0589 108.887C44.8838 109.13 46.2954 109.503 47.99 109.877C48.5514 110.001 49.1081 110.116 49.6561 110.22C51.2295 110.521 52.2625 112.047 51.9634 113.629C51.6642 115.21 50.1462 116.249 48.5727 115.948C47.9696 115.833 47.36 115.707 46.7472 115.572C44.9072 115.166 43.3732 114.76 42.4696 114.494C17.556 107.547 0 84.6705 0 58.3029C0 26.1014 25.9658 0 58 0C90.0342 0 116 26.1014 116 58.3029ZM49.249 66.7864C49.249 71.6688 53.2112 75.6543 58.0708 75.6543C62.9305 75.6543 66.8926 71.6688 66.8926 66.7864V32.0495C66.8926 27.1629 62.932 23.1817 58.0708 23.1817C53.2096 23.1817 49.249 27.1629 49.249 32.0495V66.7864ZM61.0924 66.7864C61.0924 68.4497 59.7262 69.824 58.0706 69.824C56.4151 69.824 55.0488 68.4497 55.0488 66.7864V32.0496C55.0488 30.3829 56.4127 29.012 58.0706 29.012C59.7286 29.012 61.0924 30.3829 61.0924 32.0496V66.7864ZM55.0225 90.0423C55.0597 89.8485 55.2522 89.2982 55.3849 89.0246C56.0868 87.5814 57.8133 86.9807 59.248 87.6815C60.6828 88.3823 61.2793 90.118 60.5808 91.563C60.2083 92.3346 59.533 92.8839 58.7113 93.1065C57.1648 93.5252 56.2488 95.1249 56.6654 96.6795C57.082 98.2341 58.6733 99.1548 60.2198 98.7361C62.6429 98.08 64.6825 96.4207 65.7982 94.1098C67.8954 89.771 66.1 84.5461 61.7827 82.4374C57.4688 80.3304 52.2792 82.136 50.1728 86.4668C49.8274 87.1791 49.4676 88.2074 49.3274 88.9387C49.0242 90.5196 50.0533 92.0482 51.626 92.3529C53.1987 92.6577 54.7194 91.6231 55.0225 90.0423Z" fill="#B8442C"/>
</svg>
