<svg width="21" height="21" viewBox="0 0 21 21" fill="none" xmlns="http://www.w3.org/2000/svg">
<path d="M17.9963 1.75H1.49969V4.52375L7.05604 11.0163L7.49845 11.5238V19.25H10.4978V17.5H11.9975V19.25C11.9975 19.7141 11.8395 20.1592 11.5583 20.4874C11.277 20.8156 10.8956 21 10.4978 21H7.49845C7.10071 21 6.71925 20.8156 6.43801 20.4874C6.15676 20.1592 5.99876 19.7141 5.99876 19.25V12.25L0.442409 5.76625C0.302062 5.60345 0.190714 5.40985 0.114784 5.1966C0.0388545 4.98335 -0.000156336 4.75467 4.7085e-07 4.52375V1.75C4.7085e-07 1.28587 0.158003 0.840752 0.439249 0.512563C0.720496 0.184374 1.10195 0 1.49969 0H17.9963V1.75Z" fill="#305A84"/>
<path d="M20.7784 6.37873L18.5289 3.75373C18.4592 3.67171 18.3762 3.60662 18.2849 3.5622C18.1935 3.51777 18.0955 3.4949 17.9965 3.4949C17.8975 3.4949 17.7995 3.51777 17.7081 3.5622C17.6167 3.60662 17.5338 3.67171 17.4641 3.75373L10.498 11.8912V15.75H13.8049L20.7784 7.62123C20.8487 7.53988 20.9045 7.44311 20.9426 7.33648C20.9806 7.22986 21.0002 7.11549 21.0002 6.99998C21.0002 6.88447 20.9806 6.7701 20.9426 6.66347C20.9045 6.55685 20.8487 6.46007 20.7784 6.37873ZM13.19 14H11.9977V12.6087L15.747 8.23373L16.9392 9.62498L13.19 14ZM17.9965 8.39123L16.8042 6.99998L17.9965 5.60873L19.1887 6.99998L17.9965 8.39123Z" fill="#305A84"/>
</svg>
