<svg width="14" height="14" viewBox="0 0 14 14" fill="none" xmlns="http://www.w3.org/2000/svg">
<path d="M7 7C7.89511 7 8.75355 6.64442 9.38649 6.01149C10.0194 5.37855 10.375 4.52011 10.375 3.625C10.375 2.72989 10.0194 1.87145 9.38649 1.23851C8.75355 0.605579 7.89511 0.25 7 0.25C6.10489 0.25 5.24645 0.605579 4.61351 1.23851C3.98058 1.87145 3.625 2.72989 3.625 3.625C3.625 4.52011 3.98058 5.37855 4.61351 6.01149C5.24645 6.64442 6.10489 7 7 7ZM9.25 3.625C9.25 4.22174 9.01295 4.79403 8.59099 5.21599C8.16903 5.63795 7.59674 5.875 7 5.875C6.40326 5.875 5.83097 5.63795 5.40901 5.21599C4.98705 4.79403 4.75 4.22174 4.75 3.625C4.75 3.02826 4.98705 2.45597 5.40901 2.03401C5.83097 1.61205 6.40326 1.375 7 1.375C7.59674 1.375 8.16903 1.61205 8.59099 2.03401C9.01295 2.45597 9.25 3.02826 9.25 3.625ZM13.75 12.625C13.75 13.75 12.625 13.75 12.625 13.75H1.375C1.375 13.75 0.25 13.75 0.25 12.625C0.25 11.5 1.375 8.125 7 8.125C12.625 8.125 13.75 11.5 13.75 12.625ZM12.625 12.6205C12.6239 12.3438 12.4517 11.5112 11.689 10.7485C10.9555 10.015 9.57512 9.25 7 9.25C4.42375 9.25 3.0445 10.015 2.311 10.7485C1.54825 11.5112 1.37725 12.3438 1.375 12.6205H12.625Z" fill="#305A84"/>
</svg>
