<svg width="18" height="19" viewBox="0 0 18 19" fill="none" xmlns="http://www.w3.org/2000/svg">
<path d="M17.28 4.86473H13.959C14.265 4.37367 14.445 3.79082 14.445 3.16667C14.445 1.42041 13.0523 0 11.34 0C10.4085 0 9.56925 0.422222 9 1.08768C8.43075 0.422222 7.5915 0 6.66 0C4.94775 0 3.555 1.42041 3.555 3.16667C3.555 3.79082 3.73275 4.37367 4.041 4.86473H0.72C0.32175 4.86473 0 5.19287 0 5.59903V10.1884C0 10.2894 0.081 10.372 0.18 10.372H1.08V18.2657C1.08 18.6719 1.40175 19 1.8 19H16.2C16.5983 19 16.92 18.6719 16.92 18.2657V10.372H17.82C17.919 10.372 18 10.2894 18 10.1884V5.59903C18 5.19287 17.6783 4.86473 17.28 4.86473ZM9.765 3.16667C9.765 2.28092 10.4715 1.56039 11.34 1.56039C12.2085 1.56039 12.915 2.28092 12.915 3.16667C12.915 4.05242 12.2085 4.77295 11.34 4.77295H9.765V3.16667ZM6.66 1.56039C7.5285 1.56039 8.235 2.28092 8.235 3.16667V4.77295H6.66C5.7915 4.77295 5.085 4.05242 5.085 3.16667C5.085 2.28092 5.7915 1.56039 6.66 1.56039ZM1.53 8.81159V6.42512H8.235V8.81159H1.53ZM2.61 10.372H8.235V17.4396H2.61V10.372ZM15.39 17.4396H9.765V10.372H15.39V17.4396ZM16.47 8.81159H9.765V6.42512H16.47V8.81159Z" fill="#239FB7"/>
</svg>
